{"title":"Luv Shuv Tey Chicken Khurana (2012) 720p BRrip x264 Junaid-Zia (","uid":8819990,"size":1565705678,"categoryP":"video","categoryS":"hd___movies","magnet":"?xt=urn:btih:e7b557e201b789f704b2c2cb5a8417679a1af8d1&amp;dn=Luv+Shuv+Tey+Chicken+Khurana+%282012%29+720p+BRrip+x264+Junaid-Zia+%28&amp;tr=udp%3A%2F%2Ftracker.openbittorrent.com%3A80&amp;tr=udp%3A%2F%2Fopen.demonii.com%3A1337&amp;tr=udp%3A%2F%2Ftracker.coppersurfer.tk%3A6969&amp;tr=udp%3A%2F%2Fexodus.desync.com%3A6969","seeders":1,"leechers":0,"uploader":"junaidzia","files":14,"time":1376677861,"description":" &lt;a href=&quot;http://imageshack.us/a/img802/55/xfcl.jpg&quot; rel=&quot;nofollow&quot; target=&quot;_NEW&quot;&gt;http://imageshack.us/a/img802/55/xfcl.jpg&lt;/a&gt;\n\nIMDB: \n\n         &lt;a href=&quot; http://www.imdb.com/title/tt2186933&quot; rel=&quot;nofollow&quot; target=&quot;_NEW&quot;&gt; http://www.imdb.com/title/tt2186933&lt;/a&gt;\n\n\n\n[b]General[/b]\nFormat                         : Matroska\nFormat version                 : Version 4 / Version 2\nFile size                      : 1.45 GiB\nDuration                       : 2h 17mn\n\n[b]Video[/b]\nID                             : 1\nFormat                         : AVC\nFormat/Info                    : Advanced Video Codec\nFormat profile                 : &lt;a class=&quot;__cf_email__&quot; href=&quot;/cdn-cgi/l/email-protection&quot; data-cfemail=&quot;6820010f0028245c4659&quot;&gt;[email&amp;#160;protected]&lt;/a&gt;&lt;script cf-hash='f9e31' type=&quot;text/javascript&quot;&gt;\n/* &lt;![CDATA[ */!function(){try{var t=&quot;currentScript&quot;in document?document.currentScript:function(){for(var t=document.getElementsByTagName(&quot;script&quot;),e=t.length;e--;)if(t[e].getAttribute(&quot;cf-hash&quot;))return t[e]}();if(t&amp;&amp;t.previousSibling){var e,r,n,i,c=t.previousSibling,a=c.getAttribute(&quot;data-cfemail&quot;);if(a){for(e=&quot;&quot;,r=parseInt(a.substr(0,2),16),n=2;a.length-n;n+=2)i=parseInt(a.substr(n,2),16)^r,e+=String.fromCharCode(i);e=document.createTextNode(e),c.parentNode.replaceChild(e,c)}}}catch(u){}}();/* ]]&gt; */&lt;/script&gt;\nFormat settings, CABAC         : Yes\nFormat settings, ReFrames      : 5 frames\nCodec ID                       : V_MPEG4/ISO/AVC\nDuration                       : 2h 17mn\nWidth                          : 1 280 pixels\nHeight                         : 544 pixels\nDisplay aspect ratio           : 2.35:1\nFrame rate mode                : Constant\nFrame rate                     : 24.000 fps\nColor space                    : YUV\nChroma subsampling             : 4:2:0\nBit depth                      : 8 bits\nScan type                      : Progressive\nBits/(Pixel*Frame)             : 0.067\nStream size                    : 1.05 GiB (73%)\nTitle                          : Encoder Junaid-Zia\n\nLanguage                       : Hindi\nDefault                        : Yes\nForced                         : No\n\n[b]Audio[/b]\nID                             : 2\nFormat                         : AC-3\nFormat/Info                    : Audio Coding 3\nMode extension                 : CM (complete main)\nFormat settings, Endianness    : Big\nCodec ID                       : A_AC3\nDuration                       : 2h 17mn\nBit rate mode                  : Constant\nBit rate                       : 384 Kbps\nChannel(s)                     : 6 channels\nChannel positions              : Front: L C R, Side: L R, LFE\nSampling rate                  : 48.0 KHz\nBit depth                      : 16 bits\nCompression mode               : Lossy\nStream size                    : 377 MiB (25%)\nTitle                          : Encoder Junaid-Zia\nLanguage                       : Hindi\nDefault                        : Yes\nForced                         : No\n\n[b]Text[/b]\nID                             : 3\nFormat                         : UTF-8\nCodec ID                       : S_TEXT/UTF8\nCodec ID/Info                  : UTF-8 Plain Text\nLanguage                       : English\nDefault                        : Yes\nForced                         : No\n\n\n &lt;a href=&quot;\nhttp://imageshack.us/a/img9/266/cqwh.jpg&quot; rel=&quot;nofollow&quot; target=&quot;_NEW&quot;&gt;\nhttp://imageshack.us/a/img9/266/cqwh.jpg&lt;/a&gt; &lt;a href=&quot;\nhttp://imageshack.us/a/img837/1926/vovi.jpg&quot; rel=&quot;nofollow&quot; target=&quot;_NEW&quot;&gt;\nhttp://imageshack.us/a/img837/1926/vovi.jpg&lt;/a&gt; &lt;a href=&quot;\nhttp://imageshack.us/a/img51/3340/bzd9.jpg&quot; rel=&quot;nofollow&quot; target=&quot;_NEW&quot;&gt;\nhttp://imageshack.us/a/img51/3340/bzd9.jpg&lt;/a&gt; &lt;a href=&quot;\nhttp://imageshack.us/a/img15/2734/7zfd.jpg&quot; rel=&quot;nofollow&quot; target=&quot;_NEW&quot;&gt;\nhttp://imageshack.us/a/img15/2734/7zfd.jpg&lt;/a&gt; &lt;a href=&quot;\nhttp://imageshack.us/a/img703/558/br92.jpg&quot; rel=&quot;nofollow&quot; target=&quot;_NEW&quot;&gt;\nhttp://imageshack.us/a/img703/558/br92.jpg&lt;/a&gt; &lt;a href=&quot;\nhttp://imageshack.us/a/img109/4847/riah.jpg&quot; rel=&quot;nofollow&quot; target=&quot;_NEW&quot;&gt;\nhttp://imageshack.us/a/img109/4847/riah.jpg&lt;/a&gt; &lt;a href=&quot;\nhttp://imageshack.us/a/img844/4842/wqqp.jpg&quot; rel=&quot;nofollow&quot; target=&quot;_NEW&quot;&gt;\nhttp://imageshack.us/a/img844/4842/wqqp.jpg&lt;/a&gt; &lt;a href=&quot;\nhttp://imageshack.us/a/img109/1000/0ya7.jpg&quot; rel=&quot;nofollow&quot; target=&quot;_NEW&quot;&gt;\nhttp://imageshack.us/a/img109/1000/0ya7.jpg&lt;/a&gt; &lt;a href=&quot;\nhttp://imageshack.us/a/img22/6237/c74k.jpg&quot; rel=&quot;nofollow&quot; target=&quot;_NEW&quot;&gt;\nhttp://imageshack.us/a/img22/6237/c74k.jpg&lt;/a&gt;\n\n\n\n[b]Seed After Downloading, Remember Sharing is Caring.[/b]","torrent":{"xt":"urn:btih:e7b557e201b789f704b2c2cb5a8417679a1af8d1","amp;dn":"Luv+Shuv+Tey+Chicken+Khurana+%282012%29+720p+BRrip+x264+Junaid-Zia+%28","amp;tr":["udp%3A%2F%2Ftracker.openbittorrent.com%3A80","udp%3A%2F%2Fopen.demonii.com%3A1337","udp%3A%2F%2Ftracker.coppersurfer.tk%3A6969","udp%3A%2F%2Fexodus.desync.com%3A6969"],"infoHash":"e7b557e201b789f704b2c2cb5a8417679a1af8d1","infoHashBuffer":{"type":"Buffer","data":[231,181,87,226,1,183,137,247,4,178,194,203,90,132,23,103,154,26,248,209]},"announce":[],"urlList":[]}}